<?xml version="1.0" encoding="UTF-8"?>
<svg xmlns="http://www.w3.org/2000/svg" width="16" height="16" viewBox="0 0 16 16">
  <path fill="#ffffff" d="M10 2c0-.55.45-1 1-1h2c.55 0 1 .45 1 1v1h-4V2z"/>
  <path fill="#ffffff" d="M10 4h4v6.1c0 1.6-1.3 2.9-2.9 2.9H11c-1.1 0-2-.9-2-2s.9-2 2-2h1V4z"/>
  <path fill="#ffffff" d="M5.4 5.2c.3-.3.8-.3 1.1 0l1.2 1.2 1.2-1.2c.3-.3.8-.3 1.1 0 .3.3.3.8 0 1.1L8.8 7.5 10 8.7c.3.3.3.8 0 1.1-.3.3-.8.3-1.1 0L7.7 8.6 6.5 9.8c-.3.3-.8.3-1.1 0-.3-.3-.3-.8 0-1.1l1.2-1.2-1.2-1.2c-.3-.3-.3-.8 0-1.1z" opacity="0.95"/>
</svg>
